# xmcd
# 
# Track frame offsets:
#     150
#     26861
#     60980
#     66641
#     99230
#     104350
#     136293
#     164069
#     193647
#     247789
# 
# Disc length: 3502
# 
# Revision: 3
# Processed by: cddbd v1.5.2PL0 Copyright (c) Steve Scherf et al.
# Submitted via: fre:ac v1.0.27
# 
DISCID=890dac0a
DTITLE=Anke Helfich Trio feat. Tim Hagans - dedication
DYEAR=2015
DGENRE=Jazz
TTITLE0=Invictus
TTITLE1=Chan's Song
TTITLE2=Interlude: Lost and Found
TTITLE3=Rise and Shine
TTITLE4=Interlude: Wehklage
TTITLE5=Sagrada Familia
TTITLE6=Think Of One
TTITLE7=Aspettami
TTITLE8=The Prize
TTITLE9=A simple Act of Kindness
EXTD=YEAR: 2015
EXTT0=
EXTT1=
EXTT2=
EXTT3=
EXTT4=
EXTT5=
EXTT6=
EXTT7=
EXTT8=
EXTT9=
PLAYORDER=
